<?xml version="1.0" standalone="no"?>
<!DOCTYPE svg PUBLIC "-//W3C//DTD SVG 20010904//EN"
 "http://www.w3.org/TR/2001/REC-SVG-20010904/DTD/svg10.dtd">
<svg version="1.0" xmlns="http://www.w3.org/2000/svg"
 width="1047.000000pt" height="1047.000000pt" viewBox="0 0 1047.000000 1047.000000"
 preserveAspectRatio="xMidYMid meet">
<metadata>
Created by potrace 1.11, written by Peter Selinger 2001-2013
</metadata>
<g transform="translate(0.000000,1047.000000) scale(0.100000,-0.100000)"
fill="#000000" stroke="none">
<path d="M3305 9395 c0 -1051 0 -1074 -19 -1077 -16 -2 -42 -70 -146 -383 -70
-209 -130 -387 -133 -395 -3 -8 -74 -222 -157 -475 -83 -253 -154 -467 -157
-475 -4 -8 -7 -17 -7 -20 -3 -14 -729 -2198 -736 -2215 -8 -19 -243 -725 -245
-735 0 -3 -112 -340 -249 -750 -136 -410 -249 -751 -252 -758 -3 -10 141 -12
774 -9 427 2 793 7 812 11 119 26 235 72 325 129 63 40 77 51 137 108 27 26
50 44 51 40 2 -3 3 -543 3 -1198 l-1 -1193 2977 0 2978 0 0 5235 0 5235 -2978
0 -2977 0 0 -1075z m5205 -4160 l0 -4485 -2228 0 -2227 0 1 1838 0 1837 269
805 c148 443 270 810 271 815 2 6 172 518 378 1139 207 620 376 1129 376 1130
0 1 -290 2 -645 2 -355 -1 -646 1 -646 4 -1 3 -2 319 -3 703 l-1 697 2227 0
2228 0 0 -4485z"/>
<path d="M5531 7698 c-7 -18 -143 -427 -303 -908 -160 -481 -389 -1170 -509
-1530 l-218 -655 255 -770 c141 -423 259 -779 264 -790 4 -11 34 -99 65 -195
67 -205 106 -288 180 -386 104 -138 247 -245 407 -303 48 -18 73 -25 163 -48
33 -8 1551 -17 1571 -9 13 5 13 6 -22 101 -4 11 -8 25 -10 30 -1 6 -129 390
-284 855 -155 465 -283 850 -284 855 -2 6 -6 17 -9 25 -3 8 -39 116 -80 240
-229 693 -1169 3515 -1172 3518 -1 2 -8 -12 -14 -30z"/>
<path d="M7270 6090 c-103 -25 -115 -29 -179 -63 -317 -168 -469 -534 -360
-869 111 -340 450 -548 810 -496 218 31 433 190 533 392 107 216 104 456 -8
668 -98 185 -263 313 -476 369 -74 19 -235 19 -320 -1z m174 -698 c2 -4 1 -14
-4 -21 -11 -19 -41 -6 -34 14 6 16 29 20 38 7z"/>
</g>
</svg>
